# xmcd CD database file
#
# Track frame offsets:
#	150
#	19762
#	38267
#	53534
#	73027
#	87675
#	102495
#	116035
#	130579
#	147588
#	167659
#	183883
#	203196
#
# Disc length: 2938 seconds
#
# Revision: 0
# Processed by: cddbd v1.5.2PL0 Copyright (c) Steve Scherf et al.
# Submitted via: CDex 1.51
#
DISCID=b10b780d
DTITLE=Maddy Hay - Smoke In The City
DYEAR=2009
DGENRE=Jazz
TTITLE0=Smoke In The City
TTITLE1=High On Love
TTITLE2=Gypsy
TTITLE3=Let There Be Light
TTITLE4=Move With Me
TTITLE5=My Love
TTITLE6=Purple Tree
TTITLE7=I'm With You
TTITLE8=If I Ever See You Again
TTITLE9=Dance
TTITLE10=Mathilda
TTITLE11=His Song
TTITLE12=Take You Home
EXTD=YEAR: 2009
EXTT0=
EXTT1=
EXTT2=
EXTT3=
EXTT4=
EXTT5=
EXTT6=
EXTT7=
EXTT8=
EXTT9=
EXTT10=
EXTT11=
EXTT12=
PLAYORDER=
